<svg width="31" height="27" fill="none" xmlns="http://www.w3.org/2000/svg"><g clip-path="url(#clip0)"><g filter="url(#filter0_dd)"><mask id="a" maskUnits="userSpaceOnUse" x="15.762" y="6.875" width="8" height="13" fill="#000"><path fill="#fff" d="M15.762 6.875h8v13h-8z"/><path d="M16.762 19.125l4.635-4.132c.781-.697 1.172-1.045 1.172-1.493 0-.448-.39-.796-1.172-1.493l-4.635-4.132"/></mask><path d="M16.762 19.125l4.635-4.132c.781-.697 1.172-1.045 1.172-1.493 0-.448-.39-.796-1.172-1.493l-4.635-4.132" fill="url(#paint0_linear)"/><path d="M17.427 19.871l4.635-4.132-1.33-1.493-4.636 4.133 1.331 1.492zm4.635-8.61l-4.635-4.132-1.33 1.492 4.634 4.133 1.331-1.493zm0 4.478c.369-.328.725-.643.976-.939.27-.317.53-.74.53-1.3h-2c0-.112.066-.136-.055.006-.14.165-.369.372-.782.74l1.331 1.493zm-1.33-2.985c.412.368.642.575.781.74.121.142.056.118.056.006h2c0-.56-.261-.983-.53-1.3-.252-.296-.608-.611-.977-.94l-1.33 1.494z" fill="url(#paint1_linear)" mask="url(#a)"/></g><g filter="url(#filter1_dd)"><mask id="b" maskUnits="userSpaceOnUse" x="6.929" y="6.875" width="8" height="13" fill="#000"><path fill="#fff" d="M6.929 6.875h8v13h-8z"/><path d="M7.929 19.125l4.635-4.132c.78-.697 1.171-1.045 1.171-1.493 0-.448-.39-.796-1.171-1.493L7.929 7.875"/></mask><path d="M7.929 19.125l4.635-4.132c.78-.697 1.171-1.045 1.171-1.493 0-.448-.39-.796-1.171-1.493L7.929 7.875" fill="url(#paint2_linear)"/><path d="M8.594 19.871l4.635-4.132-1.33-1.493-4.636 4.133 1.331 1.492zm4.635-8.61L8.594 7.129 7.264 8.62l4.634 4.133 1.331-1.493zm0 4.478c.368-.328.725-.643.976-.939.27-.317.53-.74.53-1.3h-2c0-.112.066-.136-.055.006-.14.165-.369.372-.782.74l1.331 1.493zm-1.33-2.985c.412.368.642.575.781.74.12.142.055.118.055.006h2c0-.56-.26-.983-.53-1.3-.251-.296-.608-.611-.976-.94l-1.33 1.494z" fill="url(#paint3_linear)" mask="url(#b)"/></g></g><defs><linearGradient id="paint0_linear" x1="25.959" y1="21.234" x2="14.915" y2="16.645" gradientUnits="userSpaceOnUse"><stop offset=".245" stop-color="#DEE9F3"/><stop offset="1" stop-color="#5F83AD"/></linearGradient><linearGradient id="paint1_linear" x1="17.246" y1="10.453" x2="24.794" y2="13.239" gradientUnits="userSpaceOnUse"><stop offset=".131" stop-color="#fff"/><stop offset="1" stop-color="#5B80A3"/></linearGradient><linearGradient id="paint2_linear" x1="17.125" y1="21.234" x2="6.082" y2="16.645" gradientUnits="userSpaceOnUse"><stop offset=".245" stop-color="#DEE9F3"/><stop offset="1" stop-color="#5F83AD"/></linearGradient><linearGradient id="paint3_linear" x1="8.413" y1="10.453" x2="15.961" y2="13.239" gradientUnits="userSpaceOnUse"><stop offset=".131" stop-color="#fff"/><stop offset="1" stop-color="#5B80A3"/></linearGradient><filter id="filter0_dd" x="8.096" y=".129" width="23.472" height="27.743" filterUnits="userSpaceOnUse" color-interpolation-filters="sRGB"><feFlood flood-opacity="0" result="BackgroundImageFix"/><feColorMatrix in="SourceAlpha" values="0 0 0 0 0 0 0 0 0 0 0 0 0 0 0 0 0 0 127 0"/><feOffset dx="1" dy="1"/><feGaussianBlur stdDeviation="3.5"/><feColorMatrix values="0 0 0 0 0.0705882 0 0 0 0 0.239843 0 0 0 0 0.396078 0 0 0 0.26 0"/><feBlend in2="BackgroundImageFix" result="effect1_dropShadow"/><feColorMatrix in="SourceAlpha" values="0 0 0 0 0 0 0 0 0 0 0 0 0 0 0 0 0 0 127 0"/><feOffset dx="-2" dy="-1"/><feGaussianBlur stdDeviation="3"/><feColorMatrix values="0 0 0 0 1 0 0 0 0 1 0 0 0 0 1 0 0 0 0.1 0"/><feBlend in2="effect1_dropShadow" result="effect2_dropShadow"/><feBlend in="SourceGraphic" in2="effect2_dropShadow" result="shape"/></filter><filter id="filter1_dd" x="-.737" y=".129" width="23.472" height="27.743" filterUnits="userSpaceOnUse" color-interpolation-filters="sRGB"><feFlood flood-opacity="0" result="BackgroundImageFix"/><feColorMatrix in="SourceAlpha" values="0 0 0 0 0 0 0 0 0 0 0 0 0 0 0 0 0 0 127 0"/><feOffset dx="1" dy="1"/><feGaussianBlur stdDeviation="3.5"/><feColorMatrix values="0 0 0 0 0.0705882 0 0 0 0 0.239843 0 0 0 0 0.396078 0 0 0 0.26 0"/><feBlend in2="BackgroundImageFix" result="effect1_dropShadow"/><feColorMatrix in="SourceAlpha" values="0 0 0 0 0 0 0 0 0 0 0 0 0 0 0 0 0 0 127 0"/><feOffset dx="-2" dy="-1"/><feGaussianBlur stdDeviation="3"/><feColorMatrix values="0 0 0 0 1 0 0 0 0 1 0 0 0 0 1 0 0 0 0.1 0"/><feBlend in2="effect1_dropShadow" result="effect2_dropShadow"/><feBlend in="SourceGraphic" in2="effect2_dropShadow" result="shape"/></filter><clipPath id="clip0"><path fill="#fff" d="M.357 0h30.286v27H.357z"/></clipPath></defs></svg>