<svg width="32" height="35" fill="none" xmlns="http://www.w3.org/2000/svg"><g filter="url(#filter0_dd)"><path d="M9 11.663c0-1.616 0-2.425.52-2.709.522-.284 1.202.153 2.562 1.027l8.301 5.337c1.178.757 1.768 1.136 1.768 1.682s-.59.925-1.768 1.682l-8.301 5.337c-1.36.874-2.04 1.311-2.561 1.027C9 24.762 9 23.953 9 22.336V11.664z" fill="url(#paint0_linear)"/><path d="M9.281 8.515c-.472.258-.638.734-.71 1.22-.071.477-.071 1.114-.071 1.886v10.758c0 .772 0 1.409.07 1.885.073.487.24.963.711 1.22.472.258.963.141 1.411-.061.44-.199.975-.543 1.624-.96l.036-.023 8.301-5.337.035-.022c.56-.36 1.027-.66 1.35-.943.336-.293.613-.65.613-1.138 0-.488-.277-.845-.613-1.138-.323-.282-.79-.583-1.35-.943l-.035-.022-8.301-5.337-.036-.023c-.65-.417-1.185-.761-1.624-.96-.448-.202-.94-.32-1.41-.062z" stroke="url(#paint1_linear)"/></g><defs><linearGradient id="paint0_linear" x1="29.406" y1="29.375" x2="7.834" y2="16.943" gradientUnits="userSpaceOnUse"><stop offset=".245" stop-color="#DEE9F3"/><stop offset="1" stop-color="#5F83AD"/></linearGradient><linearGradient id="paint1_linear" x1="10.074" y1="12.125" x2="25.154" y2="19.842" gradientUnits="userSpaceOnUse"><stop offset=".131" stop-color="#fff"/><stop offset="1" stop-color="#5B80A3"/></linearGradient><filter id="filter0_dd" x="0" y=".867" width="31.151" height="33.266" filterUnits="userSpaceOnUse" color-interpolation-filters="sRGB"><feFlood flood-opacity="0" result="BackgroundImageFix"/><feColorMatrix in="SourceAlpha" values="0 0 0 0 0 0 0 0 0 0 0 0 0 0 0 0 0 0 127 0"/><feOffset dx="1" dy="1"/><feGaussianBlur stdDeviation="3.5"/><feColorMatrix values="0 0 0 0 0.0705882 0 0 0 0 0.239843 0 0 0 0 0.396078 0 0 0 0.26 0"/><feBlend in2="BackgroundImageFix" result="effect1_dropShadow"/><feColorMatrix in="SourceAlpha" values="0 0 0 0 0 0 0 0 0 0 0 0 0 0 0 0 0 0 127 0"/><feOffset dx="-2" dy="-1"/><feGaussianBlur stdDeviation="3"/><feColorMatrix values="0 0 0 0 1 0 0 0 0 1 0 0 0 0 1 0 0 0 0.1 0"/><feBlend in2="effect1_dropShadow" result="effect2_dropShadow"/><feBlend in="SourceGraphic" in2="effect2_dropShadow" result="shape"/></filter></defs></svg>